<svg id="Capa_1" enable-background="new 0 0 512 512" height="512" viewBox="0 0 512 512" width="512" xmlns="http://www.w3.org/2000/svg"><g><g><path d="m509.407 208.74c-3.389-8.006-9.693-14.212-17.751-17.476l-9-3.646v-47.551c0-17.947-14.6-32.547-32.547-32.547h-165.176l-94.733-38.377c-3.848-1.56-8.228.297-9.786 4.143-1.559 3.846.296 8.228 4.143 9.786l60.349 24.448h-157.089l15.567-38.429c3.627-8.953 13.862-13.287 22.814-9.66l30.506 12.358c3.85 1.561 8.229-.297 9.786-4.143 1.559-3.846-.297-8.227-4.143-9.786l-30.507-12.358c-16.63-6.738-35.647 1.312-42.386 17.945l-17.853 44.072h-9.711c-17.946 0-32.546 14.6-32.546 32.547v71.767l-26.945 66.517c-3.265 8.057-3.196 16.904.194 24.91 3.389 8.006 9.693 14.212 17.751 17.476l9.001 3.646v47.551c0 17.947 14.6 32.547 32.546 32.547h32.067c4.15 0 7.514-3.364 7.514-7.514s-3.364-7.514-7.514-7.514h-32.067c-9.659 0-17.518-7.858-17.518-17.518v-134.3h98.75c-17.348 13.705-40.493 37.413-50.252 71.574-1.081 3.785 1.043 7.868 4.76 9.161 4.024 1.4 8.523-.941 9.692-5.033 10.136-35.483 37.538-58.858 52.983-69.645v145.76h-36.29c-4.15 0-7.514 3.364-7.514 7.514s3.364 7.514 7.514 7.514h103.052l74.665 30.247c.925.375 1.879.552 2.819.552 2.97 0 5.783-1.773 6.967-4.695 1.559-3.846-.296-8.228-4.143-9.786l-40.281-16.318h157.088l-15.567 38.429c-3.627 8.953-13.866 13.287-22.814 9.66l-50.501-20.458c-3.849-1.559-8.228.297-9.786 4.143-1.559 3.846.296 8.228 4.143 9.786l50.502 20.458c3.99 1.617 8.116 2.382 12.179 2.382 12.869 0 25.085-7.685 30.207-20.327l17.853-44.072h9.711c17.947 0 32.547-14.6 32.547-32.547v-71.767l26.945-66.516c3.263-8.058 3.194-16.904-.195-24.91zm-483.42 98.067c-4.337-1.757-7.73-5.098-9.555-9.406-1.824-4.309-1.861-9.07-.104-13.407l13.016-32.131v56.305zm67.461-112.141c-1.288-3.029-2.213-7.87 4.574-14.911 3.125-3.242 7.084-5.313 11.655-4.623 9.086 1.369 21.081 11.871 33.779 29.57 4.411 6.149 8.252 12.256 11.216 17.255-28.798-2.815-55.73-14.363-61.224-27.291zm66.857 7.848c-11.929-17.917-29.829-39.44-48.38-42.242-9.137-1.38-17.685 1.751-24.723 9.052-5.406 5.607-13.579 17.12-7.586 31.22 3.726 8.768 12.142 16.201 23.088 22.059h-58.331v-82.537c0-9.66 7.859-17.518 17.518-17.518h98.415v79.966zm307.322 169.419c0 9.66-7.859 17.518-17.518 17.518h-274.775v-145.76c15.445 10.787 42.847 34.161 52.983 69.645 1.171 4.1 5.664 6.421 9.692 5.033 3.72-1.282 5.839-5.383 4.76-9.161-9.759-34.161-32.904-57.869-50.252-71.574h275.11zm-286.663-149.977c2.935-4.95 6.736-10.993 11.111-17.103 12.736-17.789 24.77-28.344 33.883-29.72 4.573-.693 8.534 1.381 11.66 4.623 6.787 7.042 5.861 11.883 4.573 14.911-5.494 12.927-32.429 24.475-61.227 27.289zm286.663.648h-234.692c10.945-5.859 19.362-13.292 23.088-22.059 5.993-14.1-2.18-25.613-7.586-31.22-7.039-7.303-15.595-10.431-24.724-9.052-18.55 2.802-36.451 24.325-48.38 42.242v-79.965h274.775c9.659 0 17.518 7.858 17.518 17.518v82.536zm28.045 5.403-13.016 32.131v-56.305l3.358 1.36c4.336 1.757 7.73 5.098 9.553 9.407 1.825 4.308 1.862 9.07.105 13.407z"/><path d="m384.165 351.927v7.208c0 4.15 3.364 7.514 7.514 7.514 4.151 0 7.514-3.364 7.514-7.514v-7.002c5.664-1.201 9.545-3.776 12.031-6.116 4.904-4.615 7.832-11.58 7.832-18.633 0-5.776-1.799-11.004-5.203-15.121-4.563-5.518-11.728-8.852-21.297-9.908-8.92-.984-10.252-5.581-10.252-8.234 0-1.565.452-9.375 9.374-9.375 5.746 0 8.232 3.427 8.846 4.449 1.127 2.738 3.818 4.668 6.963 4.668 5.662 0 8.928-5.89 6.761-10.85-1.789-3.887-6.714-9.875-15.056-12.256v-7.35c0-4.15-3.364-7.514-7.514-7.514s-7.514 3.364-7.514 7.514v7.33c-5.116 1.47-9.383 4.497-12.378 8.875-4.186 6.117-4.511 12.653-4.511 14.51 0 9.487 6.19 21.248 23.633 23.172 13.119 1.448 13.119 7.727 13.119 10.091 0 2.306-.815 5.536-3.103 7.688-2.177 2.048-5.551 2.951-10.025 2.676-9.482-.578-11.632-6.485-11.846-7.156l-.003.001c-.814-3.279-3.769-5.713-7.3-5.713-5.167 0-8.855 5.308-7.05 10.155.767 2.406 5.073 13.623 19.465 16.891z"/></g></g></svg>