<svg height="480pt" viewBox="-24 0 480 480.10822" width="480pt" xmlns="http://www.w3.org/2000/svg"><path d="m168.054688 432c0 8.835938-7.164063 16-16 16-8.835938 0-16-7.164062-16-16s7.164062-16 16-16c8.835937 0 16 7.164062 16 16zm0 0"/><path d="m360.054688 432c0 8.835938-7.164063 16-16 16-8.835938 0-16-7.164062-16-16s7.164062-16 16-16c8.835937 0 16 7.164062 16 16zm0 0"/><path d="m392.054688 192h-16v-160h-176v160h-48v160h-40v-352h-112.0000005v48h64.0000005v352h52.320312c-17.296875 19.21875-16.261719 48.679688 2.339844 66.640625 18.597656 17.957031 48.078125 17.957031 66.679687 0 18.597657-17.960937 19.632813-47.421875 2.339844-66.640625h120.640625c-17.296875 19.21875-16.261719 48.679688 2.339844 66.640625 18.597656 17.957031 48.078125 17.957031 66.679687 0 18.597657-17.960937 19.632813-47.421875 2.339844-66.640625h52.320313v-48h-40zm-88-144v80h-32v-80zm-88 0h40v96h64v-96h40v144h-144zm-48 160h208v32h-208zm0 48h208v96h-208zm-152-224v-16h48v16zm64-16h16v240h-16zm0 256h16v80h-16zm104 160c0 17.671875-14.328126 32-32 32-17.671876 0-32-14.328125-32-32s14.328124-32 32-32c17.671874 0 32 14.328125 32 32zm192 0c0 17.671875-14.328126 32-32 32-17.671876 0-32-14.328125-32-32s14.328124-32 32-32c17.671874 0 32 14.328125 32 32zm40-64v16h-336v-16zm0 0"/><path d="m344.054688 320h-16v16h32v-40h-16zm0 0"/><path d="m232.054688 160h16v16h-16zm0 0"/></svg>